<svg width="46" height="46" viewBox="0 0 46 46" fill="none" xmlns="http://www.w3.org/2000/svg">
<g filter="url(#filter0_d_1804_3023)">
<circle cx="22" cy="20" r="17" fill="white"/>
</g>
<mask id="mask0_1804_3023" style="mask-type:alpha" maskUnits="userSpaceOnUse" x="5" y="3" width="34" height="34">
<circle cx="22" cy="20" r="17" fill="white"/>
</mask>
<g mask="url(#mask0_1804_3023)">
<path fill-rule="evenodd" clip-rule="evenodd" d="M22.0116 14.2221C22.2611 13.9758 22.2611 13.5779 22.0116 13.3316C21.7645 13.0845 21.3666 13.0845 21.1203 13.3316L14.8163 19.6316C14.6995 19.7516 14.6316 19.9118 14.6316 20.0784C14.6316 20.0816 14.6347 20.0879 14.6347 20.091C14.6347 20.0974 14.6316 20.1005 14.6316 20.1068C14.6316 20.316 14.7397 20.4921 14.9 20.6058L21.1447 26.8537C21.3918 27.1008 21.7921 27.1008 22.0392 26.8537C22.2855 26.6074 22.2855 26.2095 22.0392 25.9631L16.8153 20.7353L39.2624 20.7353C39.6113 20.7353 39.8947 20.455 39.8947 20.1068C39.8947 19.7547 39.6113 19.4745 39.2624 19.4745L16.7624 19.4745L22.0116 14.2221Z" fill="#4E72CA"/>
</g>
<defs>
<filter id="filter0_d_1804_3023" x="0" y="0" width="46" height="46" filterUnits="userSpaceOnUse" color-interpolation-filters="sRGB">
<feFlood flood-opacity="0" result="BackgroundImageFix"/>
<feColorMatrix in="SourceAlpha" type="matrix" values="0 0 0 0 0 0 0 0 0 0 0 0 0 0 0 0 0 0 127 0" result="hardAlpha"/>
<feOffset dx="1" dy="3"/>
<feGaussianBlur stdDeviation="3"/>
<feColorMatrix type="matrix" values="0 0 0 0 0 0 0 0 0 0 0 0 0 0 0 0 0 0 0.129331 0"/>
<feBlend mode="normal" in2="BackgroundImageFix" result="effect1_dropShadow_1804_3023"/>
<feBlend mode="normal" in="SourceGraphic" in2="effect1_dropShadow_1804_3023" result="shape"/>
</filter>
</defs>
</svg>
