<svg width="50" height="26" viewBox="0 0 50 26" fill="none" xmlns="http://www.w3.org/2000/svg">
<path fill-rule="evenodd" clip-rule="evenodd" d="M0 24.3214V0.678571C0 0.511904 0.0747372 0.357144 0.224214 0.214286C0.37369 0.0714279 0.535621 0 0.71001 0H4.85796C5.05727 0 5.22542 0.0714279 5.36244 0.214286C5.49946 0.357144 5.56797 0.511904 5.56797 0.678571V16.1429L10.0896 11.1429C10.3886 10.8571 10.7 10.7143 11.0238 10.7143H15.2092C15.533 10.7143 15.7572 10.8333 15.8818 11.0714C16.0064 11.3095 15.969 11.5595 15.7697 11.8214L10.837 17.2857L16.816 23.9286C17.0153 24.1667 17.0527 24.4048 16.9281 24.6429C16.8036 24.881 16.5794 25 16.2555 25H11.2107C10.9865 25 10.7996 24.9048 10.6502 24.7143L5.56797 18.5V24.3214C5.56797 24.4881 5.49946 24.6429 5.36244 24.7857C5.22542 24.9286 5.05727 25 4.85796 25H0.71001C0.535621 25 0.37369 24.9286 0.224214 24.7857C0.0747372 24.6429 0 24.4881 0 24.3214ZM23.9434 5.27673C23.2683 5.75891 22.4465 6 21.478 6C20.5094 6 19.6876 5.75891 19.0126 5.27673C18.3375 4.79455 18 4.20755 18 3.51572C18 2.8239 18.3375 2.23166 19.0126 1.73899C19.6876 1.24633 20.5094 1 21.478 1C22.4465 1 23.2757 1.24633 23.9654 1.73899C24.6551 2.23166 25 2.8239 25 3.51572C25 4.20755 24.6478 4.79455 23.9434 5.27673ZM19 25.2875V11.7125C19 11.5125 19.0743 11.3438 19.223 11.2063C19.3716 11.0687 19.5541 11 19.7703 11H24.2297C24.4459 11 24.6284 11.0687 24.777 11.2063C24.9257 11.3438 25 11.5125 25 11.7125V25.2875C25 25.4625 24.9189 25.625 24.7568 25.775C24.5946 25.925 24.4189 26 24.2297 26H19.7703C19.5811 26 19.4054 25.925 19.2432 25.775C19.0811 25.625 19 25.4625 19 25.2875ZM32.7709 25.6341L26.0847 11.9878C25.9661 11.7439 25.9721 11.5183 26.1025 11.311C26.2329 11.1037 26.4285 11 26.6893 11H30.6726C30.9808 11 31.1942 11.1341 31.3127 11.4024L33.4111 16.378H33.5178L35.7584 11.4024C35.8532 11.2073 35.9599 11.0915 36.0785 11.0549C36.197 11.0183 36.4104 11 36.7186 11H40.3107C40.5715 11 40.7671 11.1037 40.8975 11.311C41.0279 11.5183 41.0339 11.7439 40.9153 11.9878L34.158 25.6341C34.0157 25.878 33.8142 26 33.5533 26H33.3755C33.1147 26 32.9132 25.878 32.7709 25.6341ZM48.9434 5.27673C48.2683 5.75891 47.4465 6 46.478 6C45.5094 6 44.6876 5.75891 44.0126 5.27673C43.3375 4.79455 43 4.20755 43 3.51572C43 2.8239 43.3375 2.23166 44.0126 1.73899C44.6876 1.24633 45.5094 1 46.478 1C47.4465 1 48.2757 1.24633 48.9654 1.73899C49.6551 2.23166 50 2.8239 50 3.51572C50 4.20755 49.6478 4.79455 48.9434 5.27673ZM44 25.2875V11.7125C44 11.5125 44.0743 11.3438 44.223 11.2063C44.3716 11.0687 44.5541 11 44.7703 11H49.2297C49.4459 11 49.6284 11.0687 49.777 11.2063C49.9257 11.3438 50 11.5125 50 11.7125V25.2875C50 25.4625 49.9189 25.625 49.7568 25.775C49.5946 25.925 49.4189 26 49.2297 26H44.7703C44.5811 26 44.4054 25.925 44.2432 25.775C44.0811 25.625 44 25.4625 44 25.2875Z" fill="#41D481"/>
</svg>
