<svg width="75" height="75" viewBox="0 0 75 75" fill="none" xmlns="http://www.w3.org/2000/svg">
<rect width="75" height="75" rx="20" fill="#B6CAFB"/>
<path d="M48.4833 23.9666C48.4833 23.5064 48.1102 23.1333 47.65 23.1333H42.65C42.1897 23.1333 41.8167 23.5064 41.8167 23.9666C41.8167 24.4269 42.1897 24.8 42.65 24.8H47.65C47.871 24.8 48.083 24.7122 48.2392 24.5559C48.3955 24.3996 48.4833 24.1876 48.4833 23.9666Z" fill="#3D3D63"/>
<path fill-rule="evenodd" clip-rule="evenodd" d="M57.3583 53.3166H56.0333C56.1085 53.0313 56.1255 52.7337 56.0834 52.4416L53.8417 37.8749C53.627 36.4585 52.4076 35.4128 50.975 35.4166H45.975V30.9166H47.6417C47.8632 30.9179 48.0761 30.8309 48.2333 30.6749L51.8167 27.0916C51.9757 26.9357 52.0658 26.7227 52.0667 26.4999V21.4333C52.0658 21.2106 51.9757 20.9975 51.8167 20.8416L48.2333 17.2583C48.0761 17.1023 47.8632 17.0153 47.6417 17.0166H42.625C42.4035 17.0153 42.1906 17.1023 42.0333 17.2583L38.45 20.8416C38.294 20.9989 38.2071 21.2118 38.2083 21.4333V26.4999C38.2071 26.7215 38.294 26.9344 38.45 27.0916L42.0333 30.6749C42.193 30.8272 42.4044 30.9135 42.625 30.9166H44.2917V35.4166H31.1083C29.6744 35.4092 28.453 36.4567 28.2417 37.8749L28.0083 39.3333H25.2833C24.8231 39.3333 24.45 39.7064 24.45 40.1666C24.45 40.6269 24.8231 40.9999 25.2833 40.9999H27.7833L26 52.4416C25.9537 52.7335 25.9707 53.0319 26.05 53.3166H24.5833L22.9167 44.1499C22.7841 43.4105 22.1429 42.8709 21.3917 42.8666V42.4916C22.6743 42.081 23.4667 40.7973 23.259 39.4667C23.0512 38.1361 21.9051 37.1551 20.5583 37.1551C19.2116 37.1551 18.0655 38.1361 17.8577 39.4667C17.65 40.7973 18.4424 42.081 19.725 42.4916V42.8666C18.975 42.8742 18.3356 43.4123 18.2 44.1499L16.5333 53.3166H15.1417C14.6814 53.3166 14.3083 53.6897 14.3083 54.1499C14.3083 54.6102 14.6814 54.9833 15.1417 54.9833H57.3583C57.8186 54.9833 58.1917 54.6102 58.1917 54.1499C58.1917 53.6897 57.8186 53.3166 57.3583 53.3166ZM19.4917 39.8666C19.5407 39.3117 20.0055 38.8862 20.5625 38.8862C21.1196 38.8862 21.5844 39.3117 21.6333 39.8666C21.6691 40.2717 21.4732 40.6624 21.1271 40.876C20.781 41.0896 20.344 41.0896 19.9979 40.876C19.6518 40.6624 19.4559 40.2717 19.4917 39.8666ZM21.675 46.6083L21.2917 44.5083H19.825L19.6583 45.4416L21.675 46.6083ZM19.3417 47.1833L22.0833 48.7583L22.4583 50.8333L19.0333 48.8666L19.3417 47.1833ZM22.8667 52.9833L18.75 50.6083L18.225 53.3166H22.9333L22.8667 52.9833ZM53.125 43.9416L54.0333 49.8499H28.075L28.9917 43.9416H53.125ZM39.875 26.1583L42.975 29.2499H47.35L50.4167 26.1583V21.7749L47.35 18.6833H42.975L39.875 21.7749V26.1583ZM31.1083 37.0833H50.975C51.5828 37.0806 52.1007 37.524 52.1917 38.1249L52.8334 42.2916H29.2417L29.8833 38.1249C29.9781 37.5227 30.4987 37.08 31.1083 37.0833ZM53.8917 53.3166C54.0508 53.3197 54.2031 53.2526 54.3083 53.1333C54.4186 53.0047 54.4646 52.8331 54.4333 52.6666L54.2584 51.5416H27.825L27.6417 52.6916C27.6181 52.8499 27.6636 53.0108 27.7667 53.1333C27.8744 53.2491 28.0252 53.3154 28.1833 53.3166H53.8917Z" fill="#3D3D63"/>
<path d="M37.5583 46.9583L36.95 47.575C36.6669 47.9056 36.6859 48.3985 36.9937 48.7063C37.3015 49.0141 37.7944 49.0331 38.125 48.75L39.325 47.55C39.6481 47.225 39.6481 46.7 39.325 46.375L38.05 45.0917C37.8386 44.8803 37.5305 44.7977 37.2418 44.8751C36.953 44.9525 36.7275 45.178 36.6501 45.4668C36.5727 45.7555 36.6553 46.0636 36.8667 46.275L37.5583 46.9583Z" fill="#3D3D63"/>
<path d="M31.675 46.9583L31.0667 47.575C30.8289 47.7786 30.7253 48.0984 30.7985 48.4028C30.8717 48.7072 31.1094 48.9449 31.4138 49.0181C31.7183 49.0914 32.038 48.9878 32.2417 48.75L33.4417 47.55C33.7648 47.2249 33.7648 46.7 33.4417 46.375L32.1667 45.0916C31.8399 44.7649 31.3101 44.7649 30.9834 45.0916C30.6566 45.4184 30.6566 45.9482 30.9834 46.275L31.675 46.9583Z" fill="#3D3D63"/>
<path d="M43.4416 46.9583L42.8333 47.575C42.5502 47.9056 42.5692 48.3985 42.877 48.7063C43.1848 49.0141 43.6777 49.0331 44.0083 48.75L45.2083 47.55C45.5314 47.225 45.5314 46.7 45.2083 46.375L43.9333 45.0917C43.7219 44.8803 43.4138 44.7977 43.1251 44.8751C42.8363 44.9525 42.6108 45.178 42.5334 45.4668C42.456 45.7555 42.5386 46.0636 42.75 46.275L43.4416 46.9583Z" fill="#3D3D63"/>
<path d="M49.325 46.9583L48.7167 47.575C48.4335 47.9056 48.4525 48.3985 48.7604 48.7063C49.0682 49.0141 49.561 49.0331 49.8917 48.75L51.0917 47.55C51.4148 47.2249 51.4148 46.7 51.0917 46.375L49.8167 45.0916C49.4899 44.7649 48.9601 44.7649 48.6333 45.0916C48.3066 45.4184 48.3066 45.9482 48.6333 46.275L49.325 46.9583Z" fill="#3D3D63"/>
<path fill-rule="evenodd" clip-rule="evenodd" d="M21.5667 35.65C22.0269 35.65 22.4 35.2769 22.4 34.8167V33.9167H35.4167C35.8769 33.9167 36.25 33.5436 36.25 33.0833C36.25 32.6231 35.8769 32.25 35.4167 32.25H34.1833L31.6417 29.4C31.1666 28.8689 30.4876 28.5657 29.775 28.5667C29.0625 28.5657 28.3834 28.8689 27.9083 29.4L27.4083 29.9583C26.5925 29.3352 25.4394 29.4211 24.725 30.1583L22.8667 32.25H21.5667C21.1064 32.25 20.7333 32.6231 20.7333 33.0833V34.8167C20.7333 35.2769 21.1064 35.65 21.5667 35.65ZM29.1583 30.5083C29.3159 30.3338 29.5399 30.2339 29.775 30.2333C30.0131 30.2315 30.2405 30.3316 30.4 30.5083L31.95 32.25H29.4917L28.55 31.1917L29.1583 30.5083ZM26.3917 31.2667C26.2417 31.1083 26.1167 31.1083 25.975 31.2667L25.0583 32.25H27.225L26.3917 31.2667Z" fill="#3D3D63"/>
<path d="M38.2334 33.9167H39.9C40.3603 33.9167 40.7334 33.5436 40.7334 33.0833C40.7334 32.6231 40.3603 32.25 39.9 32.25H38.2334C37.7731 32.25 37.4 32.6231 37.4 33.0833C37.4 33.5436 37.7731 33.9167 38.2334 33.9167Z" fill="#3D3D63"/>
<path d="M36.125 40.5249H45.9584C46.4186 40.5249 46.7917 40.1518 46.7917 39.6916C46.7917 39.2314 46.4186 38.8583 45.9584 38.8583H36.125C35.6648 38.8583 35.2917 39.2314 35.2917 39.6916C35.2917 40.1518 35.6648 40.5249 36.125 40.5249Z" fill="#3D3D63"/>
</svg>
