<svg width="75" height="75" viewBox="0 0 75 75" fill="none" xmlns="http://www.w3.org/2000/svg">
<rect width="75" height="75" rx="20" fill="#FF9E83"/>
<path fill-rule="evenodd" clip-rule="evenodd" d="M55.15 56.4416H57.3833V56.45C57.8436 56.45 58.2167 56.8231 58.2167 57.2833C58.2167 57.7435 57.8436 58.1166 57.3833 58.1166H20.6167C20.1564 58.1166 19.7833 57.7435 19.7833 57.2833C19.7833 56.8231 20.1564 56.45 20.6167 56.45H22.85V55.825C22.8546 51.571 26.3044 48.125 30.5583 48.125H31.5L31.2 47.5833C31.0511 47.3255 31.0511 47.0078 31.2 46.75L32.4 44.6666C30.3246 42.8895 29.091 40.3224 29 37.5916C27.0637 37.276 25.6255 35.6279 25.575 33.6666V32.6083C25.6113 31.2905 26.7071 30.2506 28.025 30.2833H29V29.375H27.7417C26.3516 29.2965 25.2645 28.1464 25.2645 26.7541C25.2645 25.3618 26.3516 24.2117 27.7417 24.1333H29.8333V19.8C29.8316 18.5354 30.4417 17.3481 31.471 16.6134C32.5002 15.8787 33.8213 15.6874 35.0167 16.1L37.7167 17C38.5488 17.2831 39.4512 17.2831 40.2833 17L42.9917 16.1C44.186 15.6908 45.5045 15.8838 46.5315 16.618C47.5585 17.3523 48.1675 18.5375 48.1667 19.8V24.1333H50.2667C51.6568 24.2117 52.7438 25.3618 52.7438 26.7541C52.7438 28.1464 51.6568 29.2965 50.2667 29.375H49V30.2833H49.975C51.2929 30.2506 52.3886 31.2905 52.425 32.6083V33.6666C52.3745 35.6279 50.9363 37.276 49 37.5916C48.9092 40.3266 47.6722 42.8974 45.5917 44.675L46.7917 46.7583C46.9405 47.0161 46.9405 47.3338 46.7917 47.5916L46.5 48.1166H46.7667H47.4417C51.6956 48.1166 55.1454 51.5627 55.15 55.8166V56.4416ZM27.2417 33.6666C27.2828 34.7058 27.9954 35.5974 29 35.8666V31.95H28.025C27.6271 31.9163 27.2769 32.2106 27.2417 32.6083V33.6666ZM45.1 47.175L42.525 51.8916L40.2 49.575L44.3 45.8L45.1 47.175ZM50.7583 32.6083C50.723 32.2106 50.3728 31.9163 49.975 31.95H49V35.8666C50.0046 35.5974 50.7171 34.7058 50.7583 33.6666V32.6083ZM31.5 19.8C31.4947 19.0738 31.8468 18.3915 32.4417 17.975C33.031 17.5518 33.7886 17.44 34.475 17.675L37.1667 18.6C38.3504 19 39.6329 19 40.8167 18.6L43.5083 17.675C44.1947 17.44 44.9524 17.5518 45.5417 17.975C46.1428 18.3877 46.5015 19.0707 46.5 19.8V21.1166H31.5V19.8ZM46.5 22.7833H31.5V24.1333H46.5V22.7833ZM27.7333 27.7083C27.2408 27.6622 26.8643 27.2488 26.8643 26.7541C26.8643 26.2594 27.2408 25.846 27.7333 25.8H50.2333C50.7259 25.846 51.1024 26.2594 51.1024 26.7541C51.1024 27.2488 50.7259 27.6622 50.2333 27.7083H27.7333ZM30.6667 29.375V37.3C30.6667 41.9023 34.3976 45.6333 39 45.6333C43.6024 45.6333 47.3333 41.9023 47.3333 37.3V29.375H30.6667ZM39 47.1166C39.5216 47.116 40.0424 47.077 40.5583 47L39 48.4166L37.4417 47C37.9575 47.077 38.4784 47.116 39 47.1166ZM35.475 51.9333L37.8 49.6166L33.7333 45.8416L32.9 47.2166L35.475 51.9333ZM36.225 56.4833H24.5167V55.8583C24.5213 52.5248 27.2249 49.825 30.5583 49.825H31.4417C31.7545 49.8223 32.0666 49.7944 32.375 49.7416L34.55 53.6666C34.6731 53.8989 34.8985 54.0596 35.1583 54.1H35.2833C35.5031 54.0968 35.7128 54.007 35.8667 53.85L36.05 53.675C36.1498 54.0309 36.4721 54.2785 36.8417 54.2833L36.225 56.4833ZM38.6083 54.3333L37.9667 56.4833H40.0333L39.3917 54.3333H38.6083ZM40.4667 52.6666H37.55L37.4833 52.2916L39 50.7333L40.525 52.25L40.4667 52.6666ZM41.775 56.4833H53.4917L53.5 55.8166C53.4954 52.4832 50.7918 49.7833 47.4583 49.7833H46.7833C46.4079 49.7792 46.0337 49.7373 45.6667 49.6583L43.425 53.7166C43.3019 53.9489 43.0764 54.1096 42.8167 54.15H42.6917C42.4719 54.1468 42.2622 54.057 42.1083 53.9L41.925 53.725C41.8252 54.0809 41.5029 54.3285 41.1333 54.3333L41.775 56.4833Z" fill="#3D3D63"/>
<path d="M35.7333 39.0833C35.5295 39.1711 35.3691 39.3367 35.2878 39.5432C35.2064 39.7496 35.2108 39.9801 35.3 40.1833C35.9396 41.6573 37.3931 42.6111 39 42.6111C40.6068 42.6111 42.0603 41.6573 42.7 40.1833C42.8887 39.7599 42.6984 39.2637 42.275 39.075C41.8516 38.8863 41.3553 39.0766 41.1666 39.5C40.7945 40.3659 39.9425 40.927 39 40.927C38.0575 40.927 37.2055 40.3659 36.8333 39.5C36.644 39.0818 36.1522 38.8956 35.7333 39.0833Z" fill="#3D3D63"/>
<path d="M35.3 34.1666C35.7602 34.1666 36.1333 33.7935 36.1333 33.3333V32.375C36.1333 31.9147 35.7602 31.5416 35.3 31.5416C34.8398 31.5416 34.4667 31.9147 34.4667 32.375V33.3333C34.4667 33.7935 34.8398 34.1666 35.3 34.1666Z" fill="#3D3D63"/>
<path d="M42.7 34.1666C43.1602 34.1666 43.5333 33.7935 43.5333 33.3333V32.375C43.5333 31.9147 43.1602 31.5416 42.7 31.5416C42.2397 31.5416 41.8666 31.9147 41.8666 32.375V33.3333C41.8666 33.7935 42.2397 34.1666 42.7 34.1666Z" fill="#3D3D63"/>
</svg>
