<svg width="107" height="107" viewBox="0 0 107 107" fill="none" xmlns="http://www.w3.org/2000/svg">
<rect x="0.5" y="0.5" width="106" height="106" rx="8.5" fill="#B4E2E1" fill-opacity="0.350232" stroke="#50E3C2"/>
<g opacity="0.2">
<path fill-rule="evenodd" clip-rule="evenodd" d="M73.64 41.7268H67.6725L64.8734 34.7025H47.1266L44.3275 41.7268H43.4017V38.2146H39.2009V41.7268H38.36C36.5076 41.7268 35 43.2397 35 45.0986V65.7257C35 67.5986 36.5173 69.1211 38.3836 69.1211H73.6164C75.4827 69.1211 77 67.5986 77 65.7257V45.0986C77 43.2397 75.4924 41.7268 73.64 41.7268ZM40.5977 41.7268H41.9994V39.6213H40.5977V41.7268ZM75.5988 65.7257C75.5988 66.8267 74.7107 67.7188 73.617 67.7188H38.3842C37.2905 67.7188 36.4023 66.8232 36.4023 65.7257V45.0985C36.4023 44.0141 37.28 43.1335 38.3606 43.1335H45.2748L48.074 36.1091H63.9272L66.7263 43.1335H73.6406C74.7212 43.1335 75.5988 44.0141 75.5988 45.0985V65.7257Z" fill="black"/>
<path fill-rule="evenodd" clip-rule="evenodd" d="M56.0006 41.0235C49.0522 41.0235 43.4023 46.6966 43.4023 53.67C43.4023 60.6391 49.0522 66.3122 56.0006 66.3122C62.949 66.3122 68.5988 60.6391 68.5988 53.67C68.5988 46.6966 62.949 41.0235 56.0006 41.0235ZM55.9997 64.9055C49.8231 64.9055 44.7988 59.8638 44.7988 53.67C44.7988 47.4719 49.8231 42.4301 55.9997 42.4301C62.1763 42.4301 67.2006 47.4719 67.2006 53.67C67.2006 59.8638 62.1763 64.9055 55.9997 64.9055Z" fill="black"/>
<path fill-rule="evenodd" clip-rule="evenodd" d="M55.9994 45.239C51.368 45.239 47.5977 49.019 47.5977 53.67C47.5977 58.3176 51.368 62.0967 55.9994 62.0967C60.6308 62.0967 64.4012 58.3176 64.4012 53.67C64.4012 49.019 60.6308 45.239 55.9994 45.239ZM56 60.6944C52.1412 60.6944 49 57.5422 49 53.67C49 49.7934 52.1412 46.6456 56 46.6456C59.8588 46.6456 63 49.7934 63 53.67C63 57.5422 59.8588 60.6944 56 60.6944Z" fill="black"/>
<path fill-rule="evenodd" clip-rule="evenodd" d="M71.4012 44.5357C69.8559 44.5357 68.5977 45.7983 68.5977 47.3446C68.5977 48.8952 69.8559 50.1579 71.4012 50.1579C72.942 50.1579 74.2003 48.8952 74.2003 47.3446C74.2003 45.7983 72.942 44.5357 71.4012 44.5357ZM71.4018 48.7512C70.6291 48.7512 70 48.1199 70 47.3446C70 46.5736 70.6291 45.9423 71.4018 45.9423C72.17 45.9423 72.7991 46.5736 72.7991 47.3446C72.7991 48.1199 72.17 48.7512 71.4018 48.7512Z" fill="black"/>
</g>
</svg>
