<svg width="75" height="75" viewBox="0 0 75 75" fill="none" xmlns="http://www.w3.org/2000/svg">
<rect width="75" height="75" rx="20" fill="#FF9E83"/>
<path fill-rule="evenodd" clip-rule="evenodd" d="M58.1917 38.3667H57.9167V25.4417C57.9167 24.0609 56.7974 22.9417 55.4167 22.9417H20.975C19.5943 22.9417 18.475 24.0609 18.475 25.4417V46.55C18.4728 47.0664 18.6764 47.5624 19.0407 47.9283C19.4051 48.2943 19.9003 48.5 20.4167 48.5H31.7583L30.925 51.5833H29.8583C28.1895 51.5853 26.7408 52.7339 26.3583 54.3583H24.3083C23.8481 54.3583 23.475 54.7314 23.475 55.1917C23.475 55.6519 23.8481 56.025 24.3083 56.025H47.375C47.4533 57.0352 48.2951 57.8153 49.3083 57.8167H58.1917C59.2686 57.8167 60.1417 56.9436 60.1417 55.8666V40.3167C60.1417 39.2397 59.2686 38.3667 58.1917 38.3667ZM31.25 24.6083H55.4167C55.8769 24.6083 56.25 24.9814 56.25 25.4417V38.3667H49.3083C48.2314 38.3667 47.3583 39.2397 47.3583 40.3167V42.9417H31.25V24.6083ZM46.525 51.5833C46.8056 51.5863 47.085 51.6198 47.3583 51.6833L47.3917 48.5H44.6583L45.4917 51.5833H46.525ZM20.1417 25.4417C20.1417 24.9814 20.5148 24.6083 20.975 24.6083H29.5833V42.9417H20.1417V25.4417ZM20.1417 46.55C20.1416 46.7033 20.2635 46.8288 20.4167 46.8333H47.3583V44.6083H20.1417V46.55ZM43.75 51.5833H32.625L33.4583 48.5H42.9167L43.75 51.5833ZM46.5167 53.25H29.8583C29.1102 53.2514 28.4294 53.6826 28.1083 54.3583H47.35V53.4417C47.0906 53.3147 46.8055 53.2491 46.5167 53.25ZM58.4667 55.8666C58.4667 55.9418 58.4368 56.0139 58.3837 56.067C58.3305 56.1201 58.2585 56.15 58.1833 56.15H49.3083C49.2332 56.15 49.1611 56.1201 49.108 56.067C49.0549 56.0139 49.025 55.9418 49.025 55.8666V54.6667H58.475L58.4667 55.8666ZM49.025 53.0333H58.4667L58.475 40.3167C58.475 40.1602 58.3481 40.0333 58.1917 40.0333H49.3083C49.1519 40.0333 49.025 40.1602 49.025 40.3167V53.0333Z" fill="#3D3D63"/>
<path d="M55.4167 41.15H52.0833C51.6231 41.15 51.25 41.5231 51.25 41.9834C51.25 42.4436 51.6231 42.8167 52.0833 42.8167H55.4167C55.8769 42.8167 56.25 42.4436 56.25 41.9834C56.25 41.5231 55.8769 41.15 55.4167 41.15Z" fill="#3D3D63"/>
<path d="M27.6417 27.25H25.4167C24.9564 27.25 24.5833 27.6231 24.5833 28.0833C24.5833 28.5436 24.9564 28.9167 25.4167 28.9167H27.6417C28.1019 28.9167 28.475 28.5436 28.475 28.0833C28.475 27.6231 28.1019 27.25 27.6417 27.25Z" fill="#3D3D63"/>
<circle cx="22.3583" cy="28.0833" r="0.833333" fill="#3D3D63"/>
<path d="M27.6417 31.6917H25.4167C24.9564 31.6917 24.5833 32.0647 24.5833 32.525C24.5833 32.9852 24.9564 33.3583 25.4167 33.3583H27.6417C28.1019 33.3583 28.475 32.9852 28.475 32.525C28.475 32.0647 28.1019 31.6917 27.6417 31.6917Z" fill="#3D3D63"/>
<path d="M27.6417 34.4667H25.4167C24.9564 34.4667 24.5833 34.8398 24.5833 35.3C24.5833 35.7602 24.9564 36.1333 25.4167 36.1333H27.6417C28.1019 36.1333 28.475 35.7602 28.475 35.3C28.475 34.8398 28.1019 34.4667 27.6417 34.4667Z" fill="#3D3D63"/>
<circle cx="22.3583" cy="32.525" r="0.833333" fill="#3D3D63"/>
<path fill-rule="evenodd" clip-rule="evenodd" d="M54.175 30.3C54.175 32.2974 52.5558 33.9167 50.5583 33.9167C48.5609 33.9167 46.9417 32.2974 46.9417 30.3C46.9417 28.3026 48.5609 26.6833 50.5583 26.6833C52.5558 26.6833 54.175 28.3026 54.175 30.3ZM52.3607 29.5641C52.0594 28.8344 51.3478 28.3584 50.5583 28.3583C49.4846 28.3583 48.6129 29.2263 48.6083 30.3C48.605 31.0895 49.0779 31.8031 49.8063 32.1075C50.5347 32.412 51.3748 32.2472 51.9342 31.6902C52.4936 31.1331 52.662 30.2937 52.3607 29.5641Z" fill="#3D3D63"/>
<path d="M34.4417 31.75H39.4417C39.9019 31.75 40.275 31.3769 40.275 30.9167C40.275 30.4565 39.9019 30.0834 39.4417 30.0834H34.4417C33.9814 30.0834 33.6083 30.4565 33.6083 30.9167C33.6083 31.3769 33.9814 31.75 34.4417 31.75Z" fill="#3D3D63"/>
<path d="M41.85 32.8583H34.4417C33.9814 32.8583 33.6083 33.2314 33.6083 33.6916C33.6083 34.1518 33.9814 34.5249 34.4417 34.5249H41.85C42.3102 34.5249 42.6833 34.1518 42.6833 33.6916C42.6833 33.2314 42.3102 32.8583 41.85 32.8583Z" fill="#3D3D63"/>
<path d="M44.35 27.25H34.4417C33.9814 27.25 33.6083 27.6231 33.6083 28.0833C33.6083 28.5436 33.9814 28.9167 34.4417 28.9167H44.35C44.8102 28.9167 45.1833 28.5436 45.1833 28.0833C45.1833 27.6231 44.8102 27.25 44.35 27.25Z" fill="#3D3D63"/>
<path d="M39.025 39.4667H34.4417C33.9814 39.4667 33.6083 39.8398 33.6083 40.3C33.6083 40.7602 33.9814 41.1333 34.4417 41.1333H39.025C39.4852 41.1333 39.8583 40.7602 39.8583 40.3C39.8583 39.8398 39.4852 39.4667 39.025 39.4667V39.4667Z" fill="#3D3D63"/>
<path d="M34.4417 38.3583H36.3917C36.8519 38.3583 37.225 37.9852 37.225 37.525C37.225 37.0647 36.8519 36.6917 36.3917 36.6917H34.4417C33.9814 36.6917 33.6083 37.0647 33.6083 37.525C33.6083 37.9852 33.9814 38.3583 34.4417 38.3583Z" fill="#3D3D63"/>
</svg>
