<svg width="24" height="25" viewBox="0 0 24 25" fill="none" xmlns="http://www.w3.org/2000/svg">
<path fill-rule="evenodd" clip-rule="evenodd" d="M23.6703 23.9281L16.7363 16.7159C18.5049 14.9408 19.601 12.4961 19.601 9.80051C19.601 4.39538 15.2027 0 9.80051 0C4.39538 0 0 4.39538 0 9.80051C0 15.2033 4.39538 19.601 9.80051 19.601C12.1723 19.601 14.3487 18.7511 16.0462 17.3453L22.996 24.5751C23.087 24.6707 23.2101 24.7162 23.3332 24.7162C23.4492 24.7162 23.5653 24.6731 23.6569 24.5867C23.8412 24.4088 23.8482 24.1125 23.6703 23.9281ZM9.80051 18.6665C4.91046 18.6665 0.934493 14.6882 0.934493 9.80051C0.934493 4.91046 4.91046 0.934493 9.80051 0.934493C14.6882 0.934493 18.6665 4.91046 18.6665 9.80051C18.6665 14.6882 14.6882 18.6665 9.80051 18.6665Z" fill="#9B9B9B"/>
</svg>
