<svg width="75" height="75" viewBox="0 0 75 75" fill="none" xmlns="http://www.w3.org/2000/svg">
<rect width="75" height="75" rx="20" fill="#F6DAC2"/>
<path fill-rule="evenodd" clip-rule="evenodd" d="M56 39.0667L57.375 39.4417C57.5973 39.4873 57.7914 39.6215 57.9125 39.8133C58.0336 40.0052 58.0712 40.2382 58.0167 40.4584L57.1833 43.4584C57.0652 43.902 56.6107 44.1665 56.1667 44.0501L55.8333 43.9584L54.0167 50.7251C53.5803 52.3882 52.4931 53.8057 51 54.6584L46.1333 57.4584C44.7314 58.2722 43.0568 58.4742 41.5016 58.0173C39.9464 57.5603 38.6472 56.4845 37.9083 55.0417C37.8174 54.866 37.7367 54.6851 37.6667 54.5001H35.45V54.7751C35.45 55.2353 35.0769 55.6084 34.6167 55.6084H30.1667C29.7064 55.6084 29.3333 55.2353 29.3333 54.7751V54.5001H23.5C22.1193 54.5001 21 53.3808 21 52.0001V34.1667H20.725C20.2648 34.1667 19.8917 33.7936 19.8917 33.3334V28.8834C19.8917 28.4232 20.2648 28.0501 20.725 28.0501H21V22.0001C21 20.6193 22.1193 19.5001 23.5 19.5001H29.3333V19.2251C29.3333 18.7648 29.7064 18.3917 30.1667 18.3917H34.65C35.1102 18.3917 35.4833 18.7648 35.4833 19.2251V19.5001H53.5C54.8807 19.5001 56 20.6193 56 22.0001V28.0501H56.275C56.7352 28.0501 57.1083 28.4232 57.1083 28.8834V33.3334C57.1083 33.7936 56.7352 34.1667 56.275 34.1667H56V39.0667ZM39.6667 32.5001H55.4417V29.7167H39.6667C39.3624 30.2628 38.9447 30.7373 38.4417 31.1084C38.9447 31.4794 39.3624 31.954 39.6667 32.5001ZM35.4833 21.1667H53.5C53.9602 21.1667 54.3333 21.5398 54.3333 22.0001V28.0501H40.1667C40.1915 27.9039 40.2082 27.7564 40.2167 27.6084C40.2167 25.2152 38.2766 23.2751 35.8833 23.2751C35.7409 23.2803 35.599 23.2942 35.4583 23.3167L35.4833 21.1667ZM38.575 27.6084C38.575 26.1356 37.3811 24.9417 35.9083 24.9417C35.2011 24.9417 34.5228 25.2227 34.0227 25.7228C33.5226 26.2229 33.2417 26.9011 33.2417 27.6084V27.8917C34.4056 28.199 35.3134 29.11 35.6167 30.2751H35.9083C37.3811 30.2751 38.575 29.0812 38.575 27.6084ZM31.575 27.6084V27.8917C30.4078 28.1964 29.4963 29.1079 29.1917 30.2751H28.9083C27.4356 30.2751 26.2417 29.0812 26.2417 27.6084C26.2417 26.1356 27.4356 24.9417 28.9083 24.9417C30.3811 24.9417 31.575 26.1356 31.575 27.6084ZM34.075 31.1084C34.075 30.1879 33.3288 29.4417 32.4083 29.4417C31.4879 29.4417 30.7417 30.1879 30.7417 31.1084C30.7417 32.0289 31.4879 32.7751 32.4083 32.7751C33.3288 32.7751 34.075 32.0289 34.075 31.1084ZM31 20.0584H33.7833V23.8334C33.2255 24.1347 32.7439 24.5594 32.375 25.0751C32.0079 24.5768 31.5392 24.1621 31 23.8584V20.0584ZM23.5 21.1667C23.0398 21.1667 22.6667 21.5398 22.6667 22.0001V28.0501H24.5833C24.5585 27.9039 24.5418 27.7564 24.5333 27.6084C24.5379 25.2138 26.4804 23.2751 28.875 23.2751C29.0284 23.2803 29.1815 23.2942 29.3333 23.3167V21.1667H23.5ZM21.5583 32.5001V29.7167H25.1667C25.4713 30.265 25.8923 30.74 26.4 31.1084C25.8923 31.4768 25.4713 31.9518 25.1667 32.5001H21.5583ZM23.5 52.8334H29.3333L29.3667 38.9417C29.214 38.9503 29.061 38.9503 28.9083 38.9417C26.5137 38.9417 24.5713 37.003 24.5667 34.6084C24.5746 34.4603 24.5913 34.3128 24.6167 34.1667H22.6667V52.0001C22.6667 52.4603 23.0398 52.8334 23.5 52.8334ZM28.875 37.2751C27.9223 37.2751 27.0419 36.7668 26.5656 35.9417C26.0892 35.1167 26.0892 34.1001 26.5656 33.2751C27.0419 32.45 27.9223 31.9417 28.875 31.9417H29.1583C29.463 33.1089 30.3745 34.0204 31.5417 34.3251V34.6084C31.5418 36.0682 30.3681 37.2568 28.9083 37.2751H28.875ZM31 53.9417H33.7833V38.3834C33.2282 38.0783 32.7472 37.6543 32.375 37.1417C32.0079 37.64 31.5392 38.0547 31 38.3584V53.9417ZM33.2083 34.6084V34.3251C34.3723 34.0178 35.2801 33.1067 35.5833 31.9417H35.875C37.3478 31.9417 38.5417 33.1356 38.5417 34.6084C38.5417 36.0812 37.3478 37.2751 35.875 37.2751C34.4022 37.2751 33.2083 36.0812 33.2083 34.6084ZM35.4833 52.8334H37.275C37.1107 50.5006 38.3001 48.2806 40.3333 47.1251L42.9917 45.5501C43.0584 45.5087 43.1062 45.4429 43.125 45.3667L44.3333 40.8667L44 40.7751C43.5598 40.6533 43.2996 40.1999 43.4167 39.7584L44.25 36.7584C44.3681 36.3148 44.8227 36.0503 45.2667 36.1667L54.3333 38.6667V34.1667H40.1667C40.1989 34.2986 40.2239 34.4321 40.2417 34.5667C40.2417 36.96 38.3016 38.9001 35.9083 38.9001C35.7668 38.9087 35.6249 38.9087 35.4833 38.9001V52.8334ZM43.4417 56.5584C42.945 56.5996 42.4449 56.5487 41.9667 56.4084C40.6762 56.0501 39.6366 55.0933 39.1727 53.8369C38.7088 52.5805 38.8771 51.1777 39.625 50.0667C41.9667 51.0576 43.4845 53.3574 43.475 55.9001C43.5 56.1667 43.5 56.3501 43.4417 56.5584ZM50.1667 53.2167C51.2552 52.5836 52.0513 51.5481 52.3833 50.3334L52.5667 49.7001C50.8737 49.8343 49.566 51.2435 49.5583 52.9417C49.5636 53.1377 49.5859 53.3329 49.625 53.5251L50.1667 53.2167ZM52.9917 48.0584H52.8C50.0773 48.063 47.8713 50.269 47.8667 52.9917C47.8689 53.4869 47.9476 53.9789 48.1 54.4501L45.2917 56.0667C45.2373 56.0883 45.1844 56.1133 45.1333 56.1417V55.9917C45.1513 52.996 43.5043 50.2382 40.8583 48.8334C40.8963 48.8081 40.933 48.7804 40.9699 48.7526C41.0303 48.7071 41.0911 48.6613 41.1583 48.6251L43.85 47.0001C44.3051 46.7443 44.6362 46.3139 44.7667 45.8084L46 41.3251L54.225 43.5251L52.9917 48.0584ZM45.275 39.4084L55.7667 42.2667L56.1333 40.8334L45.6417 38.0167L45.275 39.4084Z" fill="#3D3D63"/>
</svg>
