<svg width="7" height="11" viewBox="0 0 7 11" fill="none" xmlns="http://www.w3.org/2000/svg">
<path fill-rule="evenodd" clip-rule="evenodd" d="M3.50001 5.25001C2.53508 5.25001 1.74999 4.46494 1.74999 3.50001C1.74999 2.53508 2.53508 1.74999 3.50001 1.74999C4.46494 1.74999 5.25001 2.53508 5.25001 3.50001C5.25001 4.46494 4.46494 5.25001 3.50001 5.25001ZM3.50001 0C1.57012 0 0 1.57014 0 3.50001C0 4.07936 0.144826 4.65378 0.420205 5.16328L3.30859 10.3872C3.34704 10.4569 3.42032 10.5 3.50001 10.5C3.57968 10.5 3.65296 10.4569 3.69141 10.3872L6.58088 5.16158C6.85517 4.65378 7 4.07936 7 3.50001C7 1.57014 5.42988 0 3.50001 0Z" fill="#414D6A"/>
</svg>
