<svg width="17" height="5" viewBox="0 0 17 5" fill="none" xmlns="http://www.w3.org/2000/svg">
<mask id="mask0_1804_14966" style="mask-type:alpha" maskUnits="userSpaceOnUse" x="0" y="0" width="5" height="5">
<path fill-rule="evenodd" clip-rule="evenodd" d="M0.015625 0.204468H4.47702V4.68138H0.015625V0.204468Z" fill="white"/>
</mask>
<g mask="url(#mask0_1804_14966)">
<path fill-rule="evenodd" clip-rule="evenodd" d="M4.47617 2.44379C4.47617 1.20919 3.47243 0.204468 2.23759 0.204468C1.00374 0.204468 0 1.20919 0 2.44379C0 3.67764 1.00374 4.68138 2.23759 4.68138C3.47243 4.68064 4.47617 3.67666 4.47617 2.44379ZM0.789062 2.44377C0.789062 1.64403 1.43974 0.993591 2.2385 0.993591C3.03824 0.993591 3.68892 1.64403 3.68892 2.44377C3.68892 3.24277 3.03824 3.89221 2.2385 3.89221C1.43974 3.89221 0.789062 3.24277 0.789062 2.44377Z" fill="black"/>
</g>
<path fill-rule="evenodd" clip-rule="evenodd" d="M10.6205 2.44379C10.6205 1.20919 9.61672 0.204468 8.38213 0.204468C7.14827 0.204468 6.14453 1.20919 6.14453 2.44379C6.14453 3.67764 7.14827 4.68138 8.38213 4.68138C9.61672 4.68064 10.6205 3.67666 10.6205 2.44379ZM8.38303 3.89222C7.58403 3.89222 6.93359 3.24277 6.93359 2.44304C6.93359 1.64305 7.58403 0.992615 8.38303 0.992615C9.18277 0.992615 9.8332 1.64305 9.8332 2.44304C9.8332 3.24277 9.18277 3.89222 8.38303 3.89222Z" fill="black"/>
<path fill-rule="evenodd" clip-rule="evenodd" d="M14.5276 0.204468C13.2928 0.204468 12.2891 1.20919 12.2891 2.44305C12.2891 3.67666 13.2928 4.68064 14.5276 4.68064C15.7615 4.68064 16.7652 3.67666 16.7652 2.44305C16.7652 1.20919 15.7615 0.204468 14.5276 0.204468ZM14.5285 3.89222C13.7288 3.89222 13.0781 3.24277 13.0781 2.44304C13.0781 1.64305 13.7288 0.992615 14.5285 0.992615C15.3273 0.992615 15.978 1.64305 15.978 2.44304C15.978 3.24277 15.3273 3.89222 14.5285 3.89222Z" fill="black"/>
</svg>
