<svg width="75" height="75" viewBox="0 0 75 75" fill="none" xmlns="http://www.w3.org/2000/svg">
<rect width="75" height="75" rx="20" fill="#B4E2E1"/>
<path fill-rule="evenodd" clip-rule="evenodd" d="M60.1 53.5667L51.95 42.0001C55.6083 35.211 53.9356 26.781 47.9624 21.903C41.9892 17.025 33.395 17.0707 27.4739 22.0118C21.5528 26.953 19.9698 35.4002 23.7 42.1501L15.65 53.5667C15.3518 53.9825 15.3125 54.5305 15.5483 54.9845C15.7841 55.4386 16.255 55.7216 16.7667 55.7167H58.9833C59.4949 55.7216 59.9659 55.4386 60.2017 54.9845C60.4375 54.5305 60.3982 53.9825 60.1 53.5667ZM26.7667 40.5917L29.7667 44.8501L28.4333 46.7417L27.35 45.6584C27.1968 45.5064 26.9907 45.4198 26.775 45.4167C26.5593 45.4198 26.3531 45.5064 26.2 45.6584L24.0083 47.8334L22.625 46.4751L26.7667 40.5917ZM41.5667 29.0084L42.25 28.0917L38.6 28.0834V30.9001H42.25L41.5667 29.9834C41.3567 29.6923 41.3567 29.2995 41.5667 29.0084ZM37.775 36.3084L42.5167 43.0417L40.8917 44.6667L38.4417 42.2167C38.1197 41.9098 37.6136 41.9098 37.2917 42.2167L34.9833 44.5001L33.225 42.7417L37.775 36.3084ZM34.4 46.2584L32.2667 44.1251L25.25 54.0917H50.325L43.475 44.3751L41.475 46.3834C41.1531 46.6903 40.6469 46.6903 40.325 46.3834L37.875 43.9334L35.55 46.2584C35.2281 46.5653 34.7219 46.5653 34.4 46.2584ZM45.875 44.9584L48.9667 40.5751L53.1333 46.4584L51.7417 47.8334L49.5417 45.6584C49.3885 45.5064 49.1824 45.4198 48.9667 45.4167C48.7509 45.4198 48.5448 45.5064 48.3917 45.6584L47.2083 46.8501L45.875 44.9584ZM32.4421 20.927C26.9319 23.1161 23.3152 28.4459 23.3167 34.3751C23.3147 36.5409 23.7988 38.6795 24.7333 40.6334L25.6417 39.3501C25.9101 39.0062 26.3221 38.8052 26.7583 38.8052C27.1946 38.8052 27.6065 39.0062 27.875 39.3501L30.7417 43.4084L36.6417 35.0751C36.7255 34.9619 36.8301 34.8657 36.95 34.7917V27.2917C36.95 26.8315 37.3231 26.4584 37.7833 26.4584H43.8917C44.1927 26.4728 44.4625 26.6485 44.5972 26.9181C44.732 27.1876 44.7108 27.5089 44.5417 27.7584L43.2333 29.5001L44.5417 31.2167C44.7114 31.4674 44.7319 31.7904 44.5951 32.0605C44.4583 32.3306 44.1858 32.5052 43.8833 32.5167H38.6V34.7751C38.7155 34.8516 38.817 34.9474 38.9 35.0584L44.8583 43.5584L47.825 39.3501C48.0935 39.0062 48.5054 38.8052 48.9417 38.8052C49.3779 38.8052 49.7899 39.0062 50.0583 39.3501L50.8917 40.4917C53.4 35.1193 52.3762 28.7601 48.3084 24.4465C44.2406 20.1328 37.9524 18.7379 32.4421 20.927ZM21.6833 47.8334L23.4333 49.5834C23.7552 49.8903 24.2614 49.8903 24.5833 49.5834L26.7833 47.3917L27.4917 48.1001L23.6333 53.5751C23.5253 53.7331 23.4516 53.9119 23.4167 54.1001H17.2583L21.6833 47.8334ZM51.9417 53.5751C52.0471 53.7335 52.1181 53.9124 52.15 54.1001L58.5333 54.0917L54.1083 47.8251L52.3583 49.5751C52.0364 49.8819 51.5302 49.8819 51.2083 49.5751L48.9917 47.3751L48.1583 48.2084L51.9417 53.5751Z" fill="#3D3D63"/>
</svg>
