<svg width="75" height="75" viewBox="0 0 75 75" fill="none" xmlns="http://www.w3.org/2000/svg">
<rect width="75" height="75" rx="20" fill="#B6CAFB"/>
<path fill-rule="evenodd" clip-rule="evenodd" d="M60.0427 33.3253H49.348C48.4221 29.8763 45.7261 27.1836 42.276 26.2619L42.0593 24.5286L44.8067 23.9999C45.5176 23.8694 46.1268 23.4142 46.4533 22.7693C46.7648 22.1415 46.7301 21.3974 46.3615 20.8014C45.993 20.2053 45.3428 19.8418 44.642 19.8399H41.4873V19.7273C41.3388 18.4757 40.2777 17.5331 39.0173 17.5331C37.757 17.5331 36.6959 18.4757 36.5473 19.7273V19.8486H33.358C32.6572 19.8505 32.007 20.214 31.6385 20.81C31.2699 21.4061 31.2352 22.1502 31.5467 22.7779C31.8753 23.4195 32.4841 23.8713 33.1933 23.9999L35.9407 24.5026L35.724 26.2359C32.2739 27.1576 29.5779 29.8503 28.652 33.2993H17.9487C16.8552 33.3267 15.9733 34.2029 15.9387 35.2962C15.9042 36.3895 16.7291 37.3196 17.8187 37.4159L19.6733 37.5286C19.4544 37.9365 19.3383 38.3917 19.3353 38.8546C19.3353 40.4533 20.6313 41.7493 22.23 41.7493C23.8287 41.7493 25.1247 40.4533 25.1247 38.8546C25.1172 38.5161 25.0497 38.1816 24.9253 37.8666L28.522 38.0833C29.4667 43.1966 33.904 47.1919 39 47.1919C44.096 47.1919 48.5333 43.2053 49.478 38.0833L53.066 37.8666C52.9424 38.1908 52.875 38.5337 52.8667 38.8806C52.8667 40.4793 54.1627 41.7753 55.7613 41.7753C57.36 41.7753 58.656 40.4793 58.656 38.8806C58.653 38.4177 58.537 37.9625 58.318 37.5546L60.1727 37.4419C61.2622 37.3456 62.0871 36.4155 62.0526 35.3222C62.0181 34.2289 61.1361 33.3527 60.0427 33.3253ZM22.23 40.0419C21.5898 40.0372 21.0742 39.5151 21.0773 38.8749C21.0805 38.2346 21.6013 37.7177 22.2415 37.7193C22.8818 37.7209 23.4 38.2404 23.4 38.8806C23.4 39.1901 23.2765 39.4868 23.0568 39.7049C22.8371 39.9229 22.5395 40.0443 22.23 40.0419ZM54.6087 38.8806C54.6087 39.522 55.1286 40.0419 55.77 40.0419C56.4114 40.0419 56.9313 39.522 56.9313 38.8806C56.9313 38.2392 56.4114 37.7193 55.77 37.7193C55.1286 37.7193 54.6087 38.2392 54.6087 38.8806ZM44.642 21.6079C44.7425 21.6051 44.8361 21.6586 44.8847 21.7466C44.9358 21.8351 44.9358 21.9441 44.8847 22.0326C44.8038 22.1903 44.6524 22.2998 44.4773 22.3273L41.834 22.8126L41.6867 21.6079H44.642ZM33.098 22.0326C33.1789 22.1903 33.3303 22.2998 33.5053 22.3273L36.1313 22.8126L36.2787 21.6079H33.3407C33.2402 21.6051 33.1466 21.6586 33.098 21.7466C33.0469 21.8351 33.0469 21.9441 33.098 22.0326ZM38.246 19.9613C38.3027 19.5886 38.6231 19.3133 39 19.3133C39.3769 19.3133 39.6973 19.5886 39.754 19.9613L40.4907 25.9066C39.501 25.7795 38.499 25.7795 37.5093 25.9066L38.246 19.9613ZM17.6193 35.3879C17.6191 35.5585 17.7524 35.6994 17.9227 35.7086L28.3487 36.3239V35.9253V35.0586H17.9487C17.7668 35.0586 17.6193 35.2061 17.6193 35.3879ZM39 45.4586C34.2333 45.4586 30.0473 41.0039 30.0473 35.9253C30.0473 31.1499 33.8953 27.5533 39 27.5533C44.1047 27.5533 47.9527 31.1499 47.9527 35.9253C47.9527 41.0039 43.7667 45.4586 39 45.4586ZM49.6773 36.3326L60.0773 35.7086C60.1639 35.711 60.2477 35.6782 60.3097 35.6178C60.3717 35.5574 60.4067 35.4745 60.4067 35.3879C60.4067 35.3006 60.372 35.2168 60.3102 35.1551C60.2484 35.0933 60.1647 35.0586 60.0773 35.0586H49.6773V35.9253V36.3326Z" fill="#3D3D63"/>
<path fill-rule="evenodd" clip-rule="evenodd" d="M35.1953 31.3146H42.8047C43.4549 31.3016 44.0737 31.5934 44.4773 32.1033C45.1008 32.866 45.5557 33.7521 45.812 34.7033C45.9824 35.3431 45.8446 36.0257 45.4393 36.5493C45.0465 37.0662 44.4332 37.3681 43.784 37.364H34.2507C33.6014 37.3681 32.9881 37.0662 32.5953 36.5493C32.1901 36.0257 32.0523 35.3431 32.2227 34.7033C32.479 33.7521 32.9339 32.866 33.5573 32.1033C33.9535 31.6031 34.5573 31.3124 35.1953 31.3146ZM40.2047 35.648V33.048H37.8213V35.648H40.2047ZM33.9907 35.5006C33.9137 35.4025 33.8909 35.2724 33.93 35.154C34.1221 34.4361 34.4616 33.7662 34.9267 33.1866C35.0007 33.1006 35.1078 33.0501 35.2213 33.048H36.088V35.648H34.2507C34.1376 35.6459 34.0319 35.5915 33.9647 35.5006H33.9907ZM43.7753 35.6393C43.8869 35.6393 43.9923 35.5882 44.0613 35.5006H44.0353C44.105 35.3985 44.1181 35.2679 44.07 35.154C43.8799 34.4327 43.5404 33.7595 43.0733 33.178C42.9993 33.0919 42.8921 33.0415 42.7787 33.0393H41.912V35.6393H43.7753Z" fill="#3D3D63"/>
<path d="M57.486 46.0393C54.1833 46.04 51.1193 47.7608 49.4 50.5806C48.6854 50.2516 47.9074 50.083 47.1207 50.0866C44.4269 50.0905 42.1331 52.0466 41.704 54.706H41.444C40.9654 54.706 40.5773 55.094 40.5773 55.5726C40.5773 56.0513 40.9654 56.4393 41.444 56.4393H42.4667C42.9453 56.4393 43.3333 56.0513 43.3333 55.5726C43.3373 54.1794 44.1111 52.9025 45.3442 52.2541C46.5774 51.6057 48.068 51.6921 49.218 52.4786C49.6792 52.7977 50.064 53.2151 50.3447 53.7006C50.5001 53.9699 50.7878 54.1352 51.0987 54.134C51.2513 54.1324 51.4008 54.0905 51.532 54.0126C51.9415 53.7717 52.0807 53.246 51.844 52.834C51.5678 52.3612 51.2231 51.9319 50.8213 51.56C52.219 49.21 54.7518 47.7707 57.486 47.7726C57.9646 47.7726 58.3527 47.3846 58.3527 46.906C58.3527 46.4273 57.9646 46.0393 57.486 46.0393V46.0393Z" fill="#3D3D63"/>
<path d="M37.8473 54.706H36.322C35.8968 52.048 33.6058 50.0912 30.914 50.0867C30.1273 50.0831 29.3493 50.2517 28.6347 50.5807C26.9089 47.7502 23.8291 46.0279 20.514 46.0394C20.0354 46.0394 19.6473 46.4274 19.6473 46.906C19.6473 47.3847 20.0354 47.7727 20.514 47.7727C23.2482 47.7708 25.781 49.2101 27.1787 51.56C26.7769 51.932 26.4322 52.3613 26.156 52.834C25.9193 53.246 26.0585 53.7718 26.468 54.0127C26.5992 54.0906 26.7487 54.1324 26.9013 54.134C27.2122 54.1353 27.4999 53.9699 27.6553 53.7007C27.936 53.2151 28.3208 52.7978 28.782 52.4787C29.8019 51.7798 31.1007 51.6282 32.2542 52.0733C33.4077 52.5184 34.2679 53.5032 34.554 54.706H34.3807C33.902 54.706 33.514 55.094 33.514 55.5727C33.514 56.0513 33.902 56.4394 34.3807 56.4394H37.8473C38.326 56.4394 38.714 56.0513 38.714 55.5727C38.714 55.094 38.326 54.706 37.8473 54.706Z" fill="#3D3D63"/>
</svg>
