<svg width="13" height="13" viewBox="0 0 13 13" fill="none" xmlns="http://www.w3.org/2000/svg">
<path fill-rule="evenodd" clip-rule="evenodd" d="M7.10525 6.25825L12.3403 1.02325C12.5743 0.78925 12.5743 0.41025 12.3403 0.17625C12.1053 -0.05875 11.7232 -0.05875 11.4882 0.17625L6.25825 5.41025L1.02325 0.17625C0.78925 -0.05875 0.41025 -0.05875 0.17625 0.17625C-0.05875 0.41025 -0.05875 0.78925 0.17625 1.02725L5.41025 6.25825L0.17625 11.4882C-0.05875 11.7232 -0.05875 12.1053 0.17625 12.3403C0.29325 12.4572 0.44525 12.5162 0.60225 12.5162C0.75425 12.5162 0.90625 12.4572 1.02325 12.3403L6.25825 7.10525L11.4882 12.3403C11.6093 12.4572 11.7622 12.5162 11.9143 12.5162C12.0663 12.5162 12.2233 12.4572 12.3403 12.3403C12.5743 12.1053 12.5743 11.7232 12.3403 11.4882L7.10525 6.25825Z" fill="#2979FF"/>
</svg>
