<svg width="18" height="9" viewBox="0 0 18 9" fill="none" xmlns="http://www.w3.org/2000/svg">
<mask id="mask0_1804_4517" style="mask-type:alpha" maskUnits="userSpaceOnUse" x="0" y="0" width="18" height="9">
<path fill-rule="evenodd" clip-rule="evenodd" d="M0.5 8.5L0.5 0.5L17.5 0.5V8.5L0.5 8.5Z" fill="white"/>
</mask>
<g mask="url(#mask0_1804_4517)">
<path fill-rule="evenodd" clip-rule="evenodd" d="M8.99954 7.4633L1.32209 0.626175C1.13318 0.457941 0.830492 0.457941 0.641582 0.626175C0.452806 0.79425 0.452806 1.06397 0.641582 1.23205L8.66122 8.37391C8.84995 8.54203 9.15282 8.54203 9.34155 8.37391L17.3575 1.23205C17.4503 1.14963 17.5 1.03855 17.5 0.930756C17.5 0.822923 17.4537 0.711839 17.3575 0.629269C17.1688 0.461194 16.8659 0.461194 16.6772 0.629269L8.99954 7.4633Z" fill="black"/>
</g>
</svg>
