<svg width="75" height="75" viewBox="0 0 75 75" fill="none" xmlns="http://www.w3.org/2000/svg">
<rect width="75" height="75" rx="20" fill="#B4E2E1"/>
<path fill-rule="evenodd" clip-rule="evenodd" d="M36.9556 50.5453V45.39C36.9556 44.9631 36.6096 44.6171 36.1827 44.6171H26.6913C26.2644 44.6171 25.9184 44.9631 25.9184 45.39V50.5453C25.5496 50.6166 25.2855 50.9427 25.2923 51.3183C25.2923 51.7451 25.6384 52.0912 26.0652 52.0912H36.8165C37.2434 52.0912 37.5894 51.7451 37.5894 51.3183C37.5956 50.9403 37.3275 50.6133 36.9556 50.5453ZM30.6641 50.5453H27.4642V46.1629H30.6641V50.5453ZM32.2099 50.5453H35.4098V46.1629H32.2099V50.5453Z" fill="#3D3D63"/>
<path d="M43.7728 51.2874C44.2978 51.2874 44.7234 50.8617 44.7234 50.3367C44.7234 49.8116 44.2978 49.386 43.7728 49.386C43.2477 49.386 42.8221 49.8116 42.8221 50.3367C42.8221 50.8617 43.2477 51.2874 43.7728 51.2874Z" fill="#3D3D63"/>
<path fill-rule="evenodd" clip-rule="evenodd" d="M53.5888 55.5848H55.7375C56.1644 55.5848 56.5104 55.9309 56.5104 56.3577C56.5104 56.7846 56.1644 57.1306 55.7375 57.1306H18.6375C18.2106 57.1306 17.8646 56.7846 17.8646 56.3577C17.8646 55.9309 18.2106 55.5848 18.6375 55.5848H20.7862V42.6771C20.4662 42.5183 20.1718 42.3125 19.9128 42.0665C19.1397 41.3251 18.7016 40.301 18.6993 39.2299C18.6913 39.1631 18.6913 39.0957 18.6993 39.0289L21.2036 29.9703C21.2998 29.6262 21.6194 29.3929 21.9765 29.4061H28.2294V27.2806H26.413C25.9862 27.2806 25.6401 26.9345 25.6401 26.5077V21.2673C25.6401 20.8404 25.9862 20.4944 26.413 20.4944H47.962C48.3888 20.4944 48.7349 20.8404 48.7349 21.2673V26.5077C48.7349 26.9345 48.3888 27.2806 47.962 27.2806H46.1456V29.4061H52.4294C52.7865 29.3929 53.1061 29.6262 53.2023 29.9703L55.7375 39.1681C55.7455 39.2348 55.7455 39.3023 55.7375 39.369C55.739 40.8112 54.8995 42.1218 53.5888 42.7235V55.5848ZM43.4249 27.4352V29.2515H44.5998V27.4352H43.4249ZM27.1937 22.0402H47.189V25.7348H27.186L27.1937 22.0402ZM30.9578 29.267V27.4506L29.7752 27.4352V29.267H30.9578ZM32.5036 27.2961H41.8791V29.4216H32.4959L32.5036 27.2961ZM41.9023 55.5848H46.9108V46.1629H41.9023V55.5848ZM52.043 55.5848H48.4566V45.39C48.4566 44.9632 48.1106 44.6171 47.6837 44.6171H41.1294C40.7025 44.6171 40.3565 44.9632 40.3565 45.39V55.5848H22.332V43.0867H22.5485C23.4842 43.0531 24.3717 42.6633 25.0295 41.9969C25.1479 41.8826 25.2565 41.7585 25.3541 41.6259C26.0603 42.5464 27.1543 43.0862 28.3144 43.0867C29.3041 43.0944 30.2548 42.7013 30.9501 41.9969C31.0644 41.8815 31.1728 41.7602 31.2747 41.6337C31.9808 42.5491 33.0711 43.0857 34.2272 43.0867C35.2167 43.0935 36.1671 42.7005 36.8629 41.9969C36.9792 41.8806 37.0876 41.7566 37.1875 41.6259C37.8937 42.5464 38.9876 43.0862 40.1478 43.0867C41.1346 43.0914 42.0818 42.6986 42.7757 41.9969C42.892 41.8806 43.0004 41.7566 43.1003 41.6259C43.8065 42.5464 44.9004 43.0862 46.0606 43.0867C47.0501 43.0935 48.0004 42.7005 48.6962 41.9969C48.8106 41.8815 48.9189 41.7602 49.0209 41.6337C49.7254 42.5509 50.8168 43.088 51.9734 43.0867H52.043V55.5848ZM49.7938 39.369C49.7938 40.574 50.7684 41.5521 51.9734 41.5564C52.5469 41.5619 53.0986 41.3362 53.5038 40.9303C53.8934 40.5443 54.1226 40.0252 54.1453 39.4772L51.8265 30.9751H48.2711L49.1909 35.9914C49.2661 36.4093 48.99 36.8097 48.5726 36.8879H48.4334C48.0555 36.8941 47.7285 36.626 47.6605 36.2542L46.6866 30.9597H43.1003L43.5718 36.0377C43.5911 36.2429 43.5277 36.4473 43.3956 36.6055C43.2635 36.7637 43.0738 36.8626 42.8684 36.8802H42.7989C42.3978 36.8818 42.0621 36.5764 42.026 36.1769L41.5467 30.9519H37.9604V36.1073C37.9604 36.5342 37.6144 36.8802 37.1875 36.8802C36.7606 36.8802 36.4146 36.5342 36.4146 36.1073V30.9288H32.8205L32.3413 36.1537C32.3052 36.5532 31.9695 36.8587 31.5684 36.857H31.4988C31.2935 36.8394 31.1037 36.7405 30.9717 36.5823C30.8396 36.4241 30.7762 36.2197 30.7955 36.0146L31.267 30.9365H27.6806L26.7067 36.231C26.6388 36.6028 26.3118 36.8709 25.9338 36.8648H25.7947C25.3773 36.7865 25.1012 36.3862 25.1764 35.9682L26.0961 30.9519H22.5407L20.222 39.3304C20.2474 39.946 20.5106 40.5279 20.9562 40.9535C21.3691 41.3548 21.9266 41.5722 22.5021 41.5564C23.6694 41.5025 24.5866 40.5376 24.5812 39.369C24.5812 38.9421 24.9273 38.5961 25.3541 38.5961C25.781 38.5961 26.1271 38.9421 26.1271 39.369C26.1271 40.5771 27.1064 41.5564 28.3144 41.5564C29.5225 41.5564 30.5018 40.5771 30.5018 39.369C30.5018 38.9421 30.8478 38.5961 31.2747 38.5961C31.7016 38.5961 32.0476 38.9421 32.0476 39.369C31.9993 40.1801 32.4046 40.9511 33.1001 41.3712C33.7956 41.7914 34.6666 41.7914 35.3621 41.3712C36.0576 40.9511 36.4629 40.1801 36.4146 39.369C36.4146 38.9421 36.7606 38.5961 37.1875 38.5961C37.6144 38.5961 37.9604 38.9421 37.9604 39.369C37.9647 40.571 38.938 41.5444 40.14 41.5486C41.3451 41.5444 42.3197 40.5663 42.3197 39.3613C42.3197 38.9344 42.6657 38.5884 43.0926 38.5884C43.5195 38.5884 43.8655 38.9344 43.8655 39.3613C43.8655 40.5693 44.8448 41.5486 46.0529 41.5486C46.6329 41.5563 47.191 41.3275 47.5987 40.9148C48.0126 40.5067 48.2463 39.9502 48.2479 39.369C48.2479 38.9421 48.594 38.5961 49.0209 38.5961C49.4477 38.5961 49.7938 38.9421 49.7938 39.369Z" fill="#3D3D63"/>
</svg>
