<svg width="265" height="292" viewBox="0 0 265 292" fill="none" xmlns="http://www.w3.org/2000/svg">
<g clip-path="url(#clip0_1804_4560)">
<rect x="-25.1116" y="59.6908" width="123.744" height="30.2564" transform="rotate(-40 -25.1116 59.6908)" fill="#41D481"/>
</g>
<path d="M18.2915 37.1537L23.733 32.4235L24.9454 33.8182L22.9484 35.5541L28.1654 41.5556L26.7073 42.8231L21.4903 36.8216L19.5039 38.5484L18.2915 37.1537ZM35.9408 33.1085C35.8371 34.4971 35.2499 35.6568 34.1792 36.5876C33.1085 37.5183 31.8784 37.9384 30.4888 37.8478C29.094 37.7371 27.9312 37.1463 27.0005 36.0757C26.0636 34.9979 25.6435 33.7678 25.7402 32.3852C25.8378 30.9895 26.422 29.8263 27.4926 28.8956C28.5633 27.9648 29.7965 27.5483 31.1922 27.6459C32.5818 27.7364 33.7451 28.3206 34.6819 29.3983C35.6188 30.476 36.0384 31.7127 35.9408 33.1085ZM30.6503 35.9637C31.493 36.0226 32.256 35.7551 32.9392 35.1612C33.6225 34.5672 33.9936 33.8489 34.0525 33.0062C34.1124 32.1503 33.8361 31.3702 33.2238 30.6658C32.6115 29.9614 31.8774 29.5793 31.0215 29.5194C30.1657 29.4596 29.3996 29.7236 28.7234 30.3114C28.0472 30.8992 27.6792 31.6211 27.6193 32.4769C27.5595 33.3328 27.8357 34.1129 28.448 34.8173C29.0603 35.5217 29.7944 35.9039 30.6503 35.9637ZM32.492 24.8094L35.2497 22.4121C35.9541 21.7998 36.7611 21.5188 37.6705 21.5692C38.5729 21.6257 39.3272 22.0026 39.9334 22.6999C40.5396 23.3973 40.8079 24.1967 40.7383 25.0982C40.6616 26.0058 40.271 26.7658 39.5666 27.3781L38.267 28.5078L40.3795 30.938L38.9214 32.2055L32.492 24.8094ZM37.0822 27.1448L38.3818 26.0151C38.6917 25.7457 38.857 25.4165 38.8775 25.0276C38.892 24.6317 38.7615 24.2752 38.4859 23.9583C38.2042 23.6342 37.8694 23.4553 37.4814 23.4216C37.0935 23.3879 36.7445 23.5057 36.4346 23.7751L35.135 24.9049L37.0822 27.1448Z" fill="black"/>
<defs>
<clipPath id="clip0_1804_4560">
<rect width="262" height="292" fill="white"/>
</clipPath>
</defs>
</svg>
