<svg width="34" height="36" viewBox="0 0 34 36" fill="none" xmlns="http://www.w3.org/2000/svg">
<circle cx="17" cy="17" r="17" fill="#304FFF"/>
<path fill-rule="evenodd" clip-rule="evenodd" d="M17.2746 9.80913L10.7998 16.4986C10.4001 16.9121 10.4001 17.5749 10.7998 17.988C11.2 18.4014 11.8415 18.4014 12.2414 17.988L16.9806 13.0916V34.4474C16.9806 35.0322 17.4331 35.5 17.9991 35.5C18.5651 35.5 19.0178 35.0322 19.0178 34.4474V13.0916L23.7572 17.988C24.1569 18.4014 24.7985 18.4014 25.1982 17.988C25.3946 17.7855 25.5 17.5125 25.5 17.2471C25.5 16.9821 25.402 16.7092 25.1982 16.5066L18.7234 9.81674C18.3163 9.3957 17.667 9.3957 17.2746 9.80913Z" fill="white" stroke="#41D481" stroke-width="0.5"/>
<mask id="mask0_1804_14951" style="mask-type:alpha" maskUnits="userSpaceOnUse" x="10" y="9" width="16" height="27">
<path fill-rule="evenodd" clip-rule="evenodd" d="M17.2746 9.80913L10.7998 16.4986C10.4001 16.9121 10.4001 17.5749 10.7998 17.988C11.2 18.4014 11.8415 18.4014 12.2414 17.988L16.9806 13.0916V34.4474C16.9806 35.0322 17.4331 35.5 17.9991 35.5C18.5651 35.5 19.0178 35.0322 19.0178 34.4474V13.0916L23.7572 17.988C24.1569 18.4014 24.7985 18.4014 25.1982 17.988C25.3946 17.7855 25.5 17.5125 25.5 17.2471C25.5 16.9821 25.402 16.7092 25.1982 16.5066L18.7234 9.81674C18.3163 9.3957 17.667 9.3957 17.2746 9.80913Z" fill="white" stroke="white" stroke-width="0.5"/>
</mask>
<g mask="url(#mask0_1804_14951)">
</g>
</svg>
