<svg width="34" height="36" viewBox="0 0 34 36" fill="none" xmlns="http://www.w3.org/2000/svg">
<circle cx="17" cy="17" r="17" fill="#41D481"/>
<path fill-rule="evenodd" clip-rule="evenodd" d="M17.2497 10.0583L10.5598 16.7478C10.1467 17.1613 10.1467 17.8241 10.5598 18.2372C10.9732 18.6507 11.6361 18.6507 12.0492 18.2372L16.9459 13.3408V34.6966C16.9459 35.2814 17.4135 35.7492 17.9982 35.7492C18.583 35.7492 19.0508 35.2814 19.0508 34.6966V13.3408L23.9476 18.2372C24.3607 18.6507 25.0235 18.6507 25.4366 18.2372C25.6395 18.0347 25.7484 17.7617 25.7484 17.4963C25.7484 17.2313 25.6471 16.9584 25.4366 16.7558L18.7466 10.0659C18.326 9.6449 17.6552 9.6449 17.2497 10.0583Z" fill="white" stroke="#41D481" stroke-width="0.5"/>
<mask id="mask0_1804_14941" style="mask-type:alpha" maskUnits="userSpaceOnUse" x="10" y="9" width="16" height="27">
<path fill-rule="evenodd" clip-rule="evenodd" d="M17.2497 10.0583L10.5598 16.7478C10.1467 17.1613 10.1467 17.8241 10.5598 18.2372C10.9732 18.6507 11.6361 18.6507 12.0492 18.2372L16.9459 13.3408V34.6966C16.9459 35.2814 17.4135 35.7492 17.9982 35.7492C18.583 35.7492 19.0508 35.2814 19.0508 34.6966V13.3408L23.9476 18.2372C24.3607 18.6507 25.0235 18.6507 25.4366 18.2372C25.6395 18.0347 25.7484 17.7617 25.7484 17.4963C25.7484 17.2313 25.6471 16.9584 25.4366 16.7558L18.7466 10.0659C18.326 9.6449 17.6552 9.6449 17.2497 10.0583Z" fill="white" stroke="white" stroke-width="0.5"/>
</mask>
<g mask="url(#mask0_1804_14941)">
</g>
</svg>
