<svg width="75" height="83" viewBox="0 0 75 83" fill="none" xmlns="http://www.w3.org/2000/svg">
<g filter="url(#filter0_d_2005_1234)">
<rect width="75" height="75" rx="20" fill="#F7E233"/>
<path fill-rule="evenodd" clip-rule="evenodd" d="M61.2333 52.4834H59.5C59.7278 52.0547 59.848 51.5771 59.85 51.0917V37.6667C60.2103 36.9415 60.3985 36.1431 60.4 35.3334V29.9834C60.4 28.911 59.5307 28.0417 58.4583 28.0417H52.625V27.2084C52.6204 22.7598 49.0153 19.1546 44.5667 19.15H35.6833C31.2347 19.1546 27.6296 22.7598 27.625 27.2084V28.0417H21.7917C20.7193 28.0417 19.85 28.911 19.85 29.9834V35.3334C19.8502 36.1459 20.0385 36.9473 20.4 37.675V51.0917C20.402 51.5771 20.5222 52.0547 20.75 52.4834H19.0167C18.5564 52.4834 18.1833 52.8565 18.1833 53.3167C18.1833 53.7769 18.5564 54.15 19.0167 54.15H35.0167L34.9167 55.5667C34.9008 55.8136 34.9954 56.0548 35.175 56.225L39.5417 60.4584C39.8657 60.776 40.3843 60.776 40.7083 60.4584L45.075 56.225C45.2546 56.0548 45.3492 55.8136 45.3333 55.5667L45.2333 54.15H61.2333C61.6936 54.15 62.0667 53.7769 62.0667 53.3167C62.0667 52.8565 61.6936 52.4834 61.2333 52.4834ZM29.2917 27.2084C29.2963 23.6802 32.1552 20.8213 35.6833 20.8167H44.5667C48.0948 20.8213 50.9537 23.6802 50.9583 27.2084V28.0417H49.2917V27.2084C49.2917 24.5988 47.1762 22.4834 44.5667 22.4834H35.6833C33.0738 22.4834 30.9583 24.5988 30.9583 27.2084V28.0417H29.2917V27.2084ZM47.625 28.0417V27.2084C47.625 26.3972 47.3028 25.6193 46.7292 25.0458C46.1557 24.4722 45.3778 24.15 44.5667 24.15H35.6833C33.9943 24.15 32.625 25.5193 32.625 27.2084V28.0417H34.225C34.32 27.7867 34.4581 27.5499 34.6333 27.3417C35.1068 26.7832 35.8012 26.4604 36.5333 26.4584H43.7167C44.4488 26.4604 45.1432 26.7832 45.6167 27.3417C45.7919 27.5499 45.93 27.7867 46.025 28.0417H47.625ZM23.4583 52.4834C23.0892 52.4834 22.7353 52.3367 22.4743 52.0757C22.2133 51.8148 22.0667 51.4608 22.0667 51.0917V39.6167C22.9583 40.256 24.0279 40.5999 25.125 40.6H25.9583V41.65C25.8993 42.7792 26.4682 43.8489 27.4375 44.4312C28.4068 45.0135 29.6182 45.0135 30.5875 44.4312C31.5568 43.8489 32.1257 42.7792 32.0667 41.65V40.6H35.9583L35.125 52.4834H23.4583ZM27.625 39.15V41.65C27.5846 42.1714 27.8398 42.6714 28.2858 42.9445C28.7318 43.2176 29.2932 43.2176 29.7392 42.9445C30.1852 42.6714 30.4404 42.1714 30.4 41.65V39.15H27.625ZM36.0417 38.9334H32.0667V38.875C32.0689 38.5067 31.9241 38.1527 31.6645 37.8915C31.4048 37.6302 31.0517 37.4834 30.6833 37.4834H27.35C26.5814 37.4834 25.9583 38.1064 25.9583 38.875V38.9334H25.125C23.1354 38.9334 21.5213 37.3229 21.5167 35.3334V29.9834C21.5167 29.8315 21.6398 29.7084 21.7917 29.7084H34.125L34.7083 33.1667C34.8398 33.9928 35.4899 34.6395 36.3167 34.7667L36.0417 38.9334ZM36.7917 52.5584L36.6083 55.3334L37.275 55.925L43.4583 52.35L43.2083 48.8584L36.7917 52.5584ZM42.4917 38.1667L42.725 41.6584L37.3167 44.7834L37.5667 41L42.4917 38.1667ZM37.9917 34.8334L37.7083 39L42.3667 36.35L42.2583 34.8334H37.9917ZM42.85 43.5084L43.0833 47.0084L36.925 50.5584L37.1833 46.7834L42.85 43.5084ZM38.5 57.1L40.125 58.6667L43.6417 55.2584L43.5667 54.175L38.5 57.1ZM43.625 33.0917H36.625C36.488 33.0933 36.3708 32.9938 36.35 32.8584L35.7167 29.0584C35.6758 28.8174 35.7429 28.5706 35.9 28.3834C36.0583 28.1982 36.2897 28.0917 36.5333 28.0917H43.7167C43.9603 28.0917 44.1917 28.1982 44.35 28.3834C44.5072 28.5706 44.5742 28.8174 44.5333 29.0584L43.9 32.8584C43.8955 33.007 43.7737 33.1251 43.625 33.125V33.0917ZM45.5417 33.1667C45.4069 33.9896 44.7576 34.6322 43.9333 34.7584L44.2083 38.9334H48.1833V38.875C48.1811 38.5067 48.3259 38.1527 48.5855 37.8915C48.8452 37.6302 49.1983 37.4834 49.5667 37.4834H52.9C53.6686 37.4834 54.2917 38.1064 54.2917 38.875V38.9334H55.125C57.1146 38.9334 58.7287 37.3229 58.7333 35.3334V29.9834C58.7333 29.8315 58.6102 29.7084 58.4583 29.7084H46.125L45.5417 33.1667ZM52.625 39.15V41.65C52.6654 42.1714 52.4102 42.6714 51.9642 42.9445C51.5182 43.2176 50.9568 43.2176 50.5108 42.9445C50.0648 42.6714 49.8096 42.1714 49.85 41.65V39.15H52.625ZM44.2917 40.6L45.125 52.4834H56.7917C57.5472 52.4653 58.1502 51.8475 58.15 51.0917V39.6167C57.2584 40.256 56.1888 40.5999 55.0917 40.6H54.2583V41.65C54.3173 42.7792 53.7485 43.8489 52.7792 44.4312C51.8099 45.0135 50.5984 45.0135 49.6291 44.4312C48.6599 43.8489 48.091 42.7792 48.15 41.65V40.6H44.2917Z" fill="#3D3D63"/>
</g>
<defs>
<filter id="filter0_d_2005_1234" x="-4" y="0" width="83" height="83" filterUnits="userSpaceOnUse" color-interpolation-filters="sRGB">
<feFlood flood-opacity="0" result="BackgroundImageFix"/>
<feColorMatrix in="SourceAlpha" type="matrix" values="0 0 0 0 0 0 0 0 0 0 0 0 0 0 0 0 0 0 127 0" result="hardAlpha"/>
<feOffset dy="4"/>
<feGaussianBlur stdDeviation="2"/>
<feComposite in2="hardAlpha" operator="out"/>
<feColorMatrix type="matrix" values="0 0 0 0 0 0 0 0 0 0 0 0 0 0 0 0 0 0 0.25 0"/>
<feBlend mode="normal" in2="BackgroundImageFix" result="effect1_dropShadow_2005_1234"/>
<feBlend mode="normal" in="SourceGraphic" in2="effect1_dropShadow_2005_1234" result="shape"/>
</filter>
</defs>
</svg>
